<svg width="22" height="15" viewBox="0 0 22 15" fill="none" xmlns="http://www.w3.org/2000/svg">
<path fill-rule="evenodd" clip-rule="evenodd" d="M0.98078 0.0535376C0.98078 0.161643 10.8669 7.5762 11.0724 7.62238C11.1891 7.64856 11.7837 7.28306 12.3935 6.81034C19.618 1.21019 21.0154 0.116489 21.0154 0.0626568C21.0154 0.0282396 16.5076 0 10.9981 0C5.48857 0 0.98078 0.0241212 0.98078 0.0535376ZM0.051745 1.06634C0.00595159 1.32918 -0.0130813 4.38025 0.00952919 7.84639L0.0506003 14.1486L2.48896 12.3324C3.82999 11.3336 5.87295 9.8214 7.02881 8.972C8.18466 8.12261 9.11598 7.38484 9.09824 7.33248C9.0616 7.22379 0.311337 0.588328 0.204724 0.588328C0.166515 0.588328 0.0975385 0.803362 0.051745 1.06634ZM17.4378 3.90341C15.1159 5.71693 13.2162 7.26335 13.2162 7.33983C13.2162 7.41646 15.1803 8.97818 17.5809 10.8105L21.9456 14.1421L21.9867 7.8433C22.0259 1.83205 21.9867 0.57715 21.7603 0.5973C21.7047 0.602154 19.7597 2.09004 17.4378 3.90341ZM7.82661 9.36633C4.8197 11.6096 1.97178 13.7241 1.23579 14.2598C0.864436 14.5302 0.59454 14.8078 0.636041 14.8769C0.732779 15.038 21.2605 15.0425 21.3574 14.8815C21.4265 14.7666 20.6329 14.1409 14.8878 9.78066L12.4094 7.89963L11.844 8.2263C11.2354 8.57782 10.5935 8.54811 10.275 8.15364C10.1811 8.03744 10.0214 7.94243 9.91995 7.94243C9.81849 7.94243 8.87643 8.58327 7.82661 9.36633Z" fill="white"/>
</svg>
