<svg width="33" height="24" viewBox="0 0 33 24" fill="none" xmlns="http://www.w3.org/2000/svg">
<path d="M31.2583 3.80399L29.1516 24H3.84864L2.15137 4.19484L16.5001 11.8646L31.2583 3.80399Z" fill="#F2F2F2"/>
<path d="M30.5435 0L16.4998 12.594L2.45605 0H16.4998H30.5435Z" fill="#F2F2F2"/>
<path d="M3.84851 5.81575V24H1.55635C1.14507 24.0012 0.75014 23.8454 0.458319 23.5668C0.166497 23.2883 0.00165287 22.9099 0 22.5146L0 3.13718L2.51335 3.20232L3.84851 5.81575Z" fill="#F14336"/>
<path d="M32.9999 3.13711V22.5145C32.9982 22.9098 32.8334 23.2882 32.5416 23.5668C32.2497 23.8453 31.8548 24.0011 31.4435 24H29.1514V5.81568L30.4205 2.95282L32.9999 3.13711Z" fill="#D32E2A"/>
<path d="M33 1.48543V3.13715L29.1515 5.81572L16.5 14.6186L3.84851 5.81572L0 3.13715V1.48543C0.00165286 1.09033 0.166374 0.711999 0.458003 0.4335C0.749632 0.155002 1.14433 -0.000905288 1.55546 6.20107e-06H2.45627L16.5 9.77143L30.5437 6.20107e-06H31.4436C31.8549 -0.00113279 32.2499 0.154674 32.5417 0.433197C32.8335 0.71172 32.9983 1.09018 33 1.48543Z" fill="#F14336"/>
<path d="M3.84851 5.81575L0 5.24575V3.13718L3.84851 5.81575Z" fill="#D32E2A"/>
</svg>
