<svg width="20" height="20" viewBox="0 0 20 20" fill="none" xmlns="http://www.w3.org/2000/svg">
<path d="M4.67114 20H0.675049V7.15234H4.67114V20ZM2.65161 5.43359C1.40552 5.43359 0.374268 4.35938 0.374268 3.07031C0.374268 1.82422 1.40552 0.792969 2.65161 0.792969C3.94067 0.792969 4.97192 1.82422 4.97192 3.07031C4.97192 4.35938 3.94067 5.43359 2.65161 5.43359ZM19.5813 20H15.6282V13.7695C15.6282 12.2656 15.5852 10.375 13.5227 10.375C11.4602 10.375 11.1594 11.9648 11.1594 13.6406V20H7.16333V7.15234H10.9875V8.91406H11.0305C11.5891 7.92578 12.8782 6.85156 14.8118 6.85156C18.8508 6.85156 19.6243 9.51562 19.6243 12.9531V20H19.5813Z" fill="white"/>
</svg>
