<svg width="35" height="35" viewBox="0 0 35 35" fill="none" xmlns="http://www.w3.org/2000/svg">
<path d="M33.9065 7.00018H18.5935C17.99 7.00018 17.5 7.52322 17.5 8.16728C17.5 8.81134 17.99 9.33339 18.5935 9.33339H30.7186L23.9986 14.9099L19.18 11.6396L18.007 13.6098L23.4765 17.3201C23.6661 17.4499 23.8895 17.5136 24.1151 17.5023C24.3408 17.491 24.5574 17.4053 24.7346 17.2571L32.813 10.5525V25.6689H18.5935C17.99 25.6689 17.5 26.1919 17.5 26.836C17.5 27.4801 17.99 28.0011 18.5935 28.0011H33.9065C34.51 28.0011 35 27.4791 35 26.835V8.16728C35 7.52322 34.51 6.99918 33.9065 6.99918V7.00018Z" fill="#194392"/>
<path d="M19.2916 0.268499C19.1691 0.158466 19.0246 0.0791038 18.869 0.0363318C18.7134 -0.00644032 18.5507 -0.0115183 18.393 0.0214765L0.89298 3.5218C0.641194 3.57225 0.414049 3.71428 0.250944 3.92325C0.0878387 4.13223 -0.000939426 4.39497 7.49737e-06 4.6659V30.3343C7.49737e-06 30.8943 0.373656 31.3764 0.89298 31.4794L18.393 34.9797C18.5507 35.0115 18.7132 35.0059 18.8686 34.9632C19.024 34.9204 19.1685 34.8417 19.2916 34.7327C19.5432 34.5107 19.688 34.1796 19.688 33.8336V1.16658C19.688 0.81955 19.5432 0.49052 19.2907 0.268499H19.2916Z" fill="#2196F3"/>
<path d="M13.125 18.6672C13.125 21.2415 11.6531 23.3347 9.84351 23.3347C8.03486 23.3347 6.56297 21.2415 6.56297 18.6672C6.56297 16.094 8.03486 14.0008 9.84351 14.0008C11.6531 14.0008 13.125 16.094 13.125 18.6672ZM15.312 18.6672C15.312 14.8079 12.8582 11.6666 9.84446 11.6666C6.82973 11.6666 4.375 14.8079 4.375 18.6672C4.375 22.5276 6.82973 25.6679 9.84351 25.6679C12.8582 25.6679 15.312 22.5276 15.312 18.6672Z" fill="#FAFAFA"/>
</svg>
