<svg width="20" height="20" viewBox="0 0 20 20" fill="none" xmlns="http://www.w3.org/2000/svg">
<path d="M14.024 13.892C14.277 13.892 14.504 13.764 14.631 13.55C14.6815 13.4691 14.7151 13.3788 14.7299 13.2846C14.7446 13.1904 14.7402 13.0942 14.7169 13.0018C14.6935 12.9093 14.6517 12.8225 14.594 12.7466C14.5363 12.6707 14.4638 12.6072 14.381 12.56L10.511 10.26V5.72C10.511 5.62536 10.4923 5.53166 10.4561 5.44424C10.4199 5.35682 10.3667 5.2774 10.2998 5.21053C10.2328 5.14366 10.1533 5.09064 10.0658 5.05452C9.97837 5.01839 9.88464 4.99987 9.79 5H9.73C9.53904 5 9.35591 5.07586 9.22088 5.21088C9.08586 5.34591 9.01 5.52904 9.01 5.72V10.44C9.01 10.795 9.198 11.124 9.5 11.3L13.65 13.79C13.7633 13.8568 13.8925 13.892 14.024 13.892ZM18.01 10C18.01 14.411 14.421 18 10.01 18C5.599 18 2.01 14.411 2.01 10C2.01 5.589 5.599 2 10.01 2C14.421 2 18.01 5.589 18.01 10ZM20 10C20 4.486 15.514 0 10 0C4.486 0 0 4.486 0 10C0 15.514 4.486 20 10 20C15.514 20 20 15.514 20 10Z" fill="#008EC3"/>
</svg>
