<svg width="25" height="17" viewBox="0 0 25 17" fill="none" xmlns="http://www.w3.org/2000/svg">
<path d="M23.7148 3.12109C24.2305 4.92578 24.2305 8.79297 24.2305 8.79297C24.2305 8.79297 24.2305 12.6172 23.7148 14.4648C23.457 15.4961 22.6406 16.2695 21.6523 16.5273C19.8047 17 12.5 17 12.5 17C12.5 17 5.15234 17 3.30469 16.5273C2.31641 16.2695 1.5 15.4961 1.24219 14.4648C0.726562 12.6172 0.726562 8.79297 0.726562 8.79297C0.726562 8.79297 0.726562 4.92578 1.24219 3.12109C1.5 2.08984 2.31641 1.27344 3.30469 1.01562C5.15234 0.5 12.5 0.5 12.5 0.5C12.5 0.5 19.8047 0.5 21.6523 1.01562C22.6406 1.27344 23.457 2.08984 23.7148 3.12109ZM10.0938 12.2734L16.1953 8.79297L10.0938 5.3125V12.2734Z" fill="white"/>
</svg>
